<?xml version="1.0" encoding="UTF-8" standalone="no"?>
<!DOCTYPE svg PUBLIC "-//W3C//DTD SVG 1.1//EN"
 "http://www.w3.org/Graphics/SVG/1.1/DTD/svg11.dtd">
<!-- Generated by graphviz version 2.40.1 (20161225.0304)
 -->
<!-- Title: dependencies Pages: 1 -->
<svg width="560pt" height="349pt"
 viewBox="0.00 0.00 560.00 349.00" xmlns="http://www.w3.org/2000/svg" xmlns:xlink="http://www.w3.org/1999/xlink">
<g id="graph0" class="graph" transform="scale(1 1) rotate(0) translate(4 345)">
<title>dependencies</title>
<polygon fill="#ffffff" stroke="transparent" points="-4,4 -4,-345 556,-345 556,4 -4,4"/>
<text text-anchor="start" x="255.0091" y="-42.4" font-family="sans-serif" font-weight="bold" font-size="14.00" fill="#000000">Legend</text>
<polygon fill="#ffffb3" stroke="transparent" points="42,-10 42,-30 62,-30 62,-10 42,-10"/>
<text text-anchor="start" x="65.629" y="-15.4" font-family="sans-serif" font-size="14.00" fill="#000000"> &#160;Declarations</text>
<polygon fill="#8dd3c7" stroke="transparent" points="155,-10 155,-30 175,-30 175,-10 155,-10"/>
<text text-anchor="start" x="178.7251" y="-15.4" font-family="sans-serif" font-size="14.00" fill="#000000"> &#160;Module</text>
<polygon fill="#80b1d3" stroke="transparent" points="241,-10 241,-30 261,-30 261,-10 241,-10"/>
<text text-anchor="start" x="264.7812" y="-15.4" font-family="sans-serif" font-size="14.00" fill="#000000"> &#160;Bootstrap</text>
<polygon fill="#fdb462" stroke="transparent" points="338,-10 338,-30 358,-30 358,-10 338,-10"/>
<text text-anchor="start" x="361.6732" y="-15.4" font-family="sans-serif" font-size="14.00" fill="#000000"> &#160;Providers</text>
<polygon fill="#fb8072" stroke="transparent" points="434,-10 434,-30 454,-30 454,-10 434,-10"/>
<text text-anchor="start" x="457.7258" y="-15.4" font-family="sans-serif" font-size="14.00" fill="#000000"> &#160;Exports</text>
<g id="clust1" class="cluster">
<title>cluster_AppModule</title>
<polygon fill="none" stroke="#000000" stroke-dasharray="1,5" points="8,-70 8,-333 544,-333 544,-70 8,-70"/>
</g>
<g id="clust2" class="cluster">
<title>cluster_AppModule_declarations</title>
<polygon fill="none" stroke="#000000" points="16,-143 16,-195 536,-195 536,-143 16,-143"/>
</g>
<g id="clust3" class="cluster">
<title>cluster_AppModule_AppComponent_providers</title>
<polygon fill="none" stroke="#000000" points="400,-78 400,-130 536,-130 536,-78 400,-78"/>
</g>
<g id="clust9" class="cluster">
<title>cluster_AppModule_bootstrap</title>
<polygon fill="none" stroke="#000000" points="221,-273 221,-325 345,-325 345,-273 221,-273"/>
</g>
<!-- AppComponent -->
<g id="node1" class="node">
<title>AppComponent</title>
<polygon fill="#ffffb3" stroke="#000000" points="527.9399,-187 422.0601,-187 422.0601,-151 527.9399,-151 527.9399,-187"/>
<text text-anchor="middle" x="475" y="-164.8" font-family="Times,serif" font-size="14.00" fill="#000000">AppComponent</text>
</g>
<!-- AppModule -->
<g id="node5" class="node">
<title>AppModule</title>
<polygon fill="#8dd3c7" stroke="#000000" points="324.6571,-252 321.6571,-256 300.6571,-256 297.6571,-252 241.3429,-252 241.3429,-216 324.6571,-216 324.6571,-252"/>
<text text-anchor="middle" x="283" y="-229.8" font-family="Times,serif" font-size="14.00" fill="#000000">AppModule</text>
</g>
<!-- AppComponent&#45;&gt;AppModule -->
<g id="edge1" class="edge">
<title>AppComponent&#45;&gt;AppModule</title>
<path fill="none" stroke="#000000" d="M475,-187.1061C475,-206.3391 475,-234 475,-234 475,-234 334.6611,-234 334.6611,-234"/>
<polygon fill="#000000" stroke="#000000" points="334.6612,-230.5001 324.6611,-234 334.6611,-237.5001 334.6612,-230.5001"/>
</g>
<!-- FoodComponent -->
<g id="node2" class="node">
<title>FoodComponent</title>
<polygon fill="#ffffb3" stroke="#000000" points="404.1151,-187 293.8849,-187 293.8849,-151 404.1151,-151 404.1151,-187"/>
<text text-anchor="middle" x="349" y="-164.8" font-family="Times,serif" font-size="14.00" fill="#000000">FoodComponent</text>
</g>
<!-- FoodComponent&#45;&gt;AppModule -->
<g id="edge3" class="edge">
<title>FoodComponent&#45;&gt;AppModule</title>
<path fill="none" stroke="#000000" d="M309.3854,-187.1061C309.3854,-187.1061 309.3854,-205.991 309.3854,-205.991"/>
<polygon fill="#000000" stroke="#000000" points="305.8854,-205.9909 309.3854,-215.991 312.8854,-205.991 305.8854,-205.9909"/>
</g>
<!-- FoodsComponent -->
<g id="node3" class="node">
<title>FoodsComponent</title>
<polygon fill="#ffffb3" stroke="#000000" points="275.5604,-187 160.4396,-187 160.4396,-151 275.5604,-151 275.5604,-187"/>
<text text-anchor="middle" x="218" y="-164.8" font-family="Times,serif" font-size="14.00" fill="#000000">FoodsComponent</text>
</g>
<!-- FoodsComponent&#45;&gt;AppModule -->
<g id="edge4" class="edge">
<title>FoodsComponent&#45;&gt;AppModule</title>
<path fill="none" stroke="#000000" d="M258.4758,-187.1061C258.4758,-187.1061 258.4758,-205.991 258.4758,-205.991"/>
<polygon fill="#000000" stroke="#000000" points="254.9759,-205.9909 258.4758,-215.991 261.9759,-205.991 254.9759,-205.9909"/>
</g>
<!-- RatingComponent -->
<g id="node4" class="node">
<title>RatingComponent</title>
<polygon fill="#ffffb3" stroke="#000000" points="142.1653,-187 23.8347,-187 23.8347,-151 142.1653,-151 142.1653,-187"/>
<text text-anchor="middle" x="83" y="-164.8" font-family="Times,serif" font-size="14.00" fill="#000000">RatingComponent</text>
</g>
<!-- RatingComponent&#45;&gt;AppModule -->
<g id="edge5" class="edge">
<title>RatingComponent&#45;&gt;AppModule</title>
<path fill="none" stroke="#000000" d="M83,-187.1061C83,-206.3391 83,-234 83,-234 83,-234 231.0734,-234 231.0734,-234"/>
<polygon fill="#000000" stroke="#000000" points="231.0735,-237.5001 241.0734,-234 231.0734,-230.5001 231.0735,-237.5001"/>
</g>
<!-- AppComponent  -->
<g id="node7" class="node">
<title>AppComponent </title>
<polygon fill="#80b1d3" stroke="#000000" points="337.439,-317 228.561,-317 228.561,-281 337.439,-281 337.439,-317"/>
<text text-anchor="middle" x="283" y="-294.8" font-family="Times,serif" font-size="14.00" fill="#000000">AppComponent </text>
</g>
<!-- AppModule&#45;&gt;AppComponent  -->
<g id="edge6" class="edge">
<title>AppModule&#45;&gt;AppComponent </title>
<path fill="none" stroke="#000000" stroke-dasharray="1,5" d="M283,-252.1061C283,-252.1061 283,-270.991 283,-270.991"/>
<polygon fill="#000000" stroke="#000000" points="279.5001,-270.9909 283,-280.991 286.5001,-270.991 279.5001,-270.9909"/>
</g>
<!-- FoodService -->
<g id="node6" class="node">
<title>FoodService</title>
<ellipse fill="#fdb462" stroke="#000000" cx="468" cy="-104" rx="59.6916" ry="18"/>
<text text-anchor="middle" x="468" y="-99.8" font-family="Times,serif" font-size="14.00" fill="#000000">FoodService</text>
</g>
<!-- FoodService&#45;&gt;AppComponent -->
<g id="edge2" class="edge">
<title>FoodService&#45;&gt;AppComponent</title>
<path fill="none" stroke="#000000" d="M475,-122.1061C475,-122.1061 475,-140.991 475,-140.991"/>
<polygon fill="#000000" stroke="#000000" points="471.5001,-140.9909 475,-150.991 478.5001,-140.991 471.5001,-140.9909"/>
</g>
</g>
</svg>
